# xmcd
#
# Track frame offsets: 
#        150
#        17374
#        48708
#        69480
#        95708
#        116209
#        134216
#        157822
#        173048
#        191060
#
# Disc length: 2847 seconds
#
# Revision: 0
# Processed by: cddbd v1.5.2PL0 Copyright (c) Steve Scherf et al.
# Submitted via: ExactAudioCopy v1.3
#
DISCID=8d0b1d0a
DTITLE=Various Artist - Buscadero Americana
DYEAR=2019
DGENRE=Cabaret
TTITLE0=Thom Chacon Feat. Mary Gauthier - The Speed Of The Sound Of Th
TTITLE0=e Lonelyness
TTITLE1=James Maddock - Madame George
TTITLE2=Ron Lasalle - Roll Me Away
TTITLE3=Michael McDermott - Thunder Road
TTITLE4=Tim Grimm - I Know Love Is All I Need
TTITLE5=Anthony D'Amato - Eve Of Destruction
TTITLE6=Brian Mitchell - Simple Twist Of Fate
TTITLE7=Chris Buhalis - We Don't Run
TTITLE8=Jaime Michaels - Pacing The Cage
TTITLE9=Andrea Parodi - Il Braccio Della Morte Di Sonora [Sonora's Dea
TTITLE9=th Row]
EXTD=
EXTT0=
EXTT1=
EXTT2=
EXTT3=
EXTT4=
EXTT5=
EXTT6=
EXTT7=
EXTT8=
EXTT9=
PLAYORDER=
